<?xml version="1.0" encoding="UTF-8" standalone="no" ?>
<!DOCTYPE svg PUBLIC "-//W3C//DTD SVG 1.1//EN" "http://www.w3.org/Graphics/SVG/1.1/DTD/svg11.dtd">
<svg xmlns="http://www.w3.org/2000/svg" xmlns:xlink="http://www.w3.org/1999/xlink" version="1.1" width="960.495" height="258.57" viewBox="112.495 -43.28999999999999 1920.99 517.14" xml:space="preserve">
<desc>Created with Fabric.js 4.6.0</desc>
<defs>
</defs>
<g transform="matrix(1 0 0 1 1072.99 215.28)" id="_VkUP_EmhASc4c4Cb6RMt"  >
<g style="" vector-effect="non-scaling-stroke"   >
		<g transform="matrix(1 0 0 1 -826.26 -46.88)" id="NEc42WUvvHqwA4TDOSeB2"  >
<path style="stroke: none; stroke-width: 1; stroke-dasharray: none; stroke-linecap: butt; stroke-dashoffset: 0; stroke-linejoin: miter; stroke-miterlimit: 4; fill: rgb(32,32,142); fill-rule: nonzero; opacity: 1;" vector-effect="non-scaling-stroke"  transform=" translate(0, 0)" d="M -133.725 -130.69 C -133.725 -130.69 67.82500000000002 -28.53 90.45500000000001 -17.090000000000003 C 113.09500000000001 -5.650000000000004 133.72500000000002 8.869999999999997 133.72500000000002 42.76 L 133.72500000000002 130.69 L -89.14499999999998 17.75999999999999 C -118.85499999999999 2.429999999999991 -133.72499999999997 -17.74000000000001 -133.72499999999997 -44.37000000000001 L -133.72499999999997 -130.69 z" stroke-linecap="round" />
</g>
		<g transform="matrix(1 0 0 1 -444.13 53.68)" id="qRkPKioancLkDSfq8dj-2"  >
<path style="stroke: none; stroke-width: 1; stroke-dasharray: none; stroke-linecap: butt; stroke-dashoffset: 0; stroke-linejoin: miter; stroke-miterlimit: 4; fill: rgb(32,32,142); fill-rule: nonzero; opacity: 1;" vector-effect="non-scaling-stroke"  transform=" translate(4191.06, -1013.68)" d="M -4140.67 984.4 L -4140.67 983.64 C -4140.67 949.8 -4164.02 927.36 -4191.64 927.36 C -4219.26 927.36 -4242.22 949.8000000000001 -4242.22 983.64 L -4242.22 984.4 C -4242.22 1018.24 -4219.26 1040.68 -4191.64 1040.68 C -4164.02 1040.68 -4140.67 1018.62 -4140.67 984.4 M -4300.59 908.73 C -4300.59 892.76 -4287.360000000001 879.83 -4271.02 879.83 C -4254.68 879.83 -4241.450000000001 892.76 -4241.450000000001 908.73 L -4241.450000000001 911.4 C -4227.050000000001 892.38 -4207.210000000001 878.31 -4176.470000000001 878.31 C -4127.830000000001 878.31 -4081.530000000001 915.5799999999999 -4081.530000000001 983.65 L -4081.530000000001 984.41 C -4081.530000000001 1052.47 -4127.050000000001 1089.74 -4176.470000000001 1089.74 C -4207.990000000002 1089.74 -4227.440000000001 1075.67 -4241.450000000001 1059.32 L -4241.450000000001 1120.1599999999999 C -4241.450000000001 1136.12 -4254.68 1149.06 -4271.02 1149.06 C -4287.360000000001 1149.06 -4300.59 1136.1299999999999 -4300.59 1120.1599999999999 L -4300.59 908.73 z" stroke-linecap="round" />
</g>
		<g transform="matrix(1 0 0 1 -221.86 24.78)" id="sk9LGHorX7MdVUWOVniQc"  >
<path style="stroke: none; stroke-width: 1; stroke-dasharray: none; stroke-linecap: butt; stroke-dashoffset: 0; stroke-linejoin: miter; stroke-miterlimit: 4; fill: rgb(32,32,142); fill-rule: nonzero; opacity: 1;" vector-effect="non-scaling-stroke"  transform=" translate(3968.81, -984.78)" d="M -3928.92 1014.06 L -3928.92 1003.79 C -3939.04 999.2199999999999 -3952.27 996.1899999999999 -3966.66 996.1899999999999 C -3991.95 996.1899999999999 -4007.52 1006.0699999999999 -4007.52 1024.32 L -4007.52 1025.08 C -4007.52 1040.6699999999998 -3994.29 1049.8 -3975.23 1049.8 C -3947.6 1049.8 -3928.92 1034.97 -3928.92 1014.06 M -4064.71 1027.37 L -4064.71 1026.61 C -4064.71 982.1199999999999 -4030.09 961.5799999999999 -3980.67 961.5799999999999 C -3959.66 961.5799999999999 -3944.48 964.9999999999999 -3929.7000000000003 969.9499999999999 L -3929.7000000000003 966.53 C -3929.7000000000003 942.5799999999999 -3944.8700000000003 929.27 -3974.44 929.27 C -3990.78 929.27 -4004.01 931.55 -4015.3 934.97 C -4018.8 936.11 -4021.13 936.49 -4023.86 936.49 C -4037.48 936.49 -4048.3700000000003 926.22 -4048.3700000000003 912.91 C -4048.3700000000003 902.64 -4041.76 893.89 -4032.4200000000005 890.4699999999999 C -4013.7500000000005 883.6299999999999 -3993.5100000000007 879.8299999999999 -3965.8900000000003 879.8299999999999 C -3933.6000000000004 879.8299999999999 -3910.2500000000005 888.1899999999999 -3895.4600000000005 902.6399999999999 C -3879.9000000000005 917.8499999999999 -3872.9000000000005 940.2899999999998 -3872.9000000000005 967.6599999999999 L -3872.9000000000005 1060.4399999999998 C -3872.9000000000005 1076.0299999999997 -3885.7400000000007 1088.1999999999998 -3901.6900000000005 1088.1999999999998 C -3918.8100000000004 1088.1999999999998 -3930.0900000000006 1076.4199999999998 -3930.0900000000006 1064.2499999999998 L -3930.0900000000006 1063.8699999999997 C -3944.4800000000005 1079.4599999999996 -3964.3300000000004 1089.7299999999996 -3993.1300000000006 1089.7299999999996 C -4032.42 1089.73 -4064.71 1067.67 -4064.71 1027.37" stroke-linecap="round" />
</g>
		<g transform="matrix(1 0 0 1 -55.36 -12.87)" id="FIVz9CVxhRBWMaD0BZTt2"  >
<path style="stroke: none; stroke-width: 1; stroke-dasharray: none; stroke-linecap: butt; stroke-dashoffset: 0; stroke-linejoin: miter; stroke-miterlimit: 4; fill: rgb(32,32,142); fill-rule: nonzero; opacity: 1;" vector-effect="non-scaling-stroke"  transform=" translate(3802.3, -947.13)" d="M -3831.87 834.96 C -3831.87 818.99 -3818.64 806.0600000000001 -3802.2999999999997 806.0600000000001 C -3785.9599999999996 806.0600000000001 -3772.7299999999996 818.99 -3772.7299999999996 834.96 L -3772.7299999999996 1059.31 C -3772.7299999999996 1075.28 -3785.9599999999996 1088.2 -3802.2999999999997 1088.2 C -3818.64 1088.2 -3831.87 1075.28 -3831.87 1059.31 L -3831.87 834.96 z" stroke-linecap="round" />
</g>
		<g transform="matrix(1 0 0 1 107.31 24.39)" id="O82sLD_pPNDbGwB2XWpRt"  >
<path style="stroke: none; stroke-width: 1; stroke-dasharray: none; stroke-linecap: butt; stroke-dashoffset: 0; stroke-linejoin: miter; stroke-miterlimit: 4; fill: rgb(32,32,142); fill-rule: nonzero; opacity: 1;" vector-effect="non-scaling-stroke"  transform=" translate(3639.64, -984.39)" d="M -3594.31 968.05 C -3597.81 942.1899999999999 -3613.38 924.6999999999999 -3638.2799999999997 924.6999999999999 C -3662.7999999999997 924.6999999999999 -3678.7499999999995 941.8199999999999 -3683.4199999999996 968.05 L -3594.31 968.05 z M -3632.44 1090.49 C -3695.08 1090.49 -3741.38 1047.52 -3741.38 985.15 L -3741.38 984.39 C -3741.38 926.21 -3698.9700000000003 878.3 -3638.27 878.3 C -3568.62 878.3 -3537.89 934.2099999999999 -3537.89 976.4 C -3537.89 993.14 -3549.95 1004.16 -3565.5099999999998 1004.16 L -3682.62 1004.16 C -3676.79 1030.3899999999999 -3658.1099999999997 1044.09 -3631.65 1044.09 C -3615.31 1044.09 -3601.69 1039.1499999999999 -3589.63 1030.3999999999999 C -3585.35 1027.36 -3581.4500000000003 1025.84 -3575.23 1025.84 C -3562 1025.84 -3552.27 1035.73 -3552.27 1048.6499999999999 C -3552.27 1056.2599999999998 -3555.77 1061.9599999999998 -3560.05 1065.7699999999998 C -3578.36 1080.99 -3602.09 1090.49 -3632.44 1090.49" stroke-linecap="round" />
</g>
		<g transform="matrix(1 0 0 1 304.07 24.02)" id="yJKt-F3fKJSnYbl1OcrpO"  >
<path style="stroke: none; stroke-width: 1; stroke-dasharray: none; stroke-linecap: butt; stroke-dashoffset: 0; stroke-linejoin: miter; stroke-miterlimit: 4; fill: rgb(32,32,142); fill-rule: nonzero; opacity: 1;" vector-effect="non-scaling-stroke"  transform=" translate(3442.88, -984.02)" d="M -3506.88 908.73 C -3506.88 892.76 -3493.65 879.83 -3477.3 879.83 C -3460.96 879.83 -3447.7400000000002 892.76 -3447.7400000000002 908.73 L -3447.7400000000002 917.86 C -3439.17 898.09 -3425.17 879.83 -3407.6600000000003 879.83 C -3389.3700000000003 879.83 -3378.8700000000003 891.62 -3378.8700000000003 907.97 C -3378.8700000000003 923.1800000000001 -3388.9900000000002 932.3000000000001 -3401.05 934.97 C -3431.01 941.8100000000001 -3447.7400000000002 964.25 -3447.7400000000002 1005.3100000000001 L -3447.7400000000002 1059.31 C -3447.7400000000002 1075.28 -3460.9700000000003 1088.21 -3477.3 1088.21 C -3493.6400000000003 1088.21 -3506.88 1075.28 -3506.88 1059.31 L -3506.88 908.73 z" stroke-linecap="round" />
</g>
		<g transform="matrix(1 0 0 1 546.38 23.26)" id="vdp-zNWDbObDZCmqlMBNQ"  >
<path style="stroke: none; stroke-width: 1; stroke-dasharray: none; stroke-linecap: butt; stroke-dashoffset: 0; stroke-linejoin: miter; stroke-miterlimit: 4; fill: rgb(32,32,142); fill-rule: nonzero; opacity: 1;" vector-effect="non-scaling-stroke"  transform=" translate(3200.57, -983.26)" d="M -3359.7 908.73 C -3359.7 892.76 -3346.47 879.83 -3330.12 879.83 C -3313.7799999999997 879.83 -3300.56 892.76 -3300.56 908.73 L -3300.56 911.01 C -3286.94 893.9 -3269.04 878.31 -3239.08 878.31 C -3211.85 878.31 -3191.23 890.0999999999999 -3180.33 910.63 C -3162.04 889.72 -3140.25 878.31 -3111.85 878.31 C -3067.89 878.31 -3041.43 904.17 -3041.43 953.2199999999999 L -3041.43 1059.31 C -3041.43 1075.28 -3054.66 1088.21 -3071 1088.21 C -3087.34 1088.21 -3100.58 1075.28 -3100.58 1059.31 L -3100.58 972.2299999999999 C -3100.58 944.8499999999999 -3113.0299999999997 930.7799999999999 -3135.2 930.7799999999999 C -3157.37 930.7799999999999 -3171 944.8499999999999 -3171 972.2299999999999 L -3171 1059.31 C -3171 1075.28 -3184.23 1088.21 -3200.57 1088.21 C -3216.9100000000003 1088.21 -3230.1400000000003 1075.28 -3230.1400000000003 1059.31 L -3230.1400000000003 972.2299999999999 C -3230.1400000000003 944.8499999999999 -3242.59 930.7799999999999 -3264.76 930.7799999999999 C -3286.94 930.7799999999999 -3300.5600000000004 944.8499999999999 -3300.5600000000004 972.2299999999999 L -3300.5600000000004 1059.31 C -3300.5600000000004 1075.28 -3313.7900000000004 1088.21 -3330.1200000000003 1088.21 C -3346.4600000000005 1088.21 -3359.7000000000003 1075.28 -3359.7000000000003 1059.31 L -3359.7000000000003 908.73 z" stroke-linecap="round" />
</g>
		<g transform="matrix(1 0 0 1 847.17 24.4)" id="6S3_-12jODv9dDlG5UYJ9"  >
<path style="stroke: none; stroke-width: 1; stroke-dasharray: none; stroke-linecap: butt; stroke-dashoffset: 0; stroke-linejoin: miter; stroke-miterlimit: 4; fill: rgb(32,32,142); fill-rule: nonzero; opacity: 1;" vector-effect="non-scaling-stroke"  transform=" translate(2899.77, -984.4)" d="M -2845.29 985.16 L -2845.29 984.4 C -2845.29 954.36 -2867.47 928.12 -2900.15 928.12 C -2934 928.12 -2954.23 953.6 -2954.23 983.63 L -2954.23 984.39 C -2954.23 1014.43 -2932.05 1040.67 -2899.37 1040.67 C -2865.52 1040.68 -2845.29 1015.19 -2845.29 985.16 M -3012.6 985.16 L -3012.6 984.4 C -3012.6 925.8399999999999 -2964.35 878.31 -2899.38 878.31 C -2834.79 878.31 -2786.94 925.0799999999999 -2786.94 983.64 L -2786.94 984.4 C -2786.94 1042.96 -2835.18 1090.49 -2900.16 1090.49 C -2964.74 1090.49 -3012.6 1043.71 -3012.6 985.16" stroke-linecap="round" />
</g>
		<g transform="matrix(1 0 0 1 443.04 -201.33)" id="nQMJC7GiQ-4Cmm0dKngFR"  >
<path style="stroke: none; stroke-width: 1; stroke-dasharray: none; stroke-linecap: butt; stroke-dashoffset: 0; stroke-linejoin: miter; stroke-miterlimit: 4; fill: rgb(0,159,221); fill-rule: nonzero; opacity: 1;" vector-effect="non-scaling-stroke"  transform=" translate(3303.9, -758.67)" d="M -3356.32 758.59 C -3356.32 724.13 -3330.1200000000003 701.9300000000001 -3297.52 701.9300000000001 C -3275.69 701.9300000000001 -3261.42 712.1300000000001 -3252.49 724.6200000000001 L -3268.4599999999996 733.6400000000001 C -3274.5299999999997 725.4200000000001 -3285.0999999999995 719.0100000000001 -3297.5199999999995 719.0100000000001 C -3319.7299999999996 719.0100000000001 -3336.1899999999996 735.4500000000002 -3336.1899999999996 758.5900000000001 C -3336.1899999999996 781.4200000000002 -3319.72 798.1700000000002 -3297.5199999999995 798.1700000000002 C -3286.0999999999995 798.1700000000002 -3276.0499999999997 793.0700000000002 -3270.9899999999993 788.3200000000002 L -3270.9899999999993 771.4200000000002 L -3304.5999999999995 771.4200000000002 L -3304.5999999999995 754.5 L -3251.4799999999996 754.5 L -3251.4799999999996 795.39 C -3262.4299999999994 807.39 -3278.2199999999993 815.41 -3297.5199999999995 815.41 C -3330.11 815.41 -3356.32 792.91 -3356.32 758.59" stroke-linecap="round" />
</g>
		<g transform="matrix(1 0 0 1 561.13 -201.48)" id="MiPnJ8kOzXYEZkHB-IeYB"  >
<path style="stroke: none; stroke-width: 1; stroke-dasharray: none; stroke-linecap: butt; stroke-dashoffset: 0; stroke-linejoin: miter; stroke-miterlimit: 4; fill: rgb(0,159,221); fill-rule: nonzero; opacity: 1;" vector-effect="non-scaling-stroke"  transform=" translate(3185.81, -758.52)" d="M -3163.37 737.92 C -3163.37 727.42 -3171.45 720.66 -3182.54 720.66 L -3209.6 720.66 L -3209.6 755.49 L -3182.54 755.49 C -3171.45 755.48 -3163.37 748.56 -3163.37 737.92 M -3165.24 813.27 L -3189.9199999999996 772.4 L -3209.5999999999995 772.4 L -3209.5999999999995 813.27 L -3229.2399999999993 813.27 L -3229.2399999999993 703.76 L -3180.0099999999993 703.76 C -3157.8299999999995 703.76 -3143.209999999999 717.71 -3143.209999999999 738.08 C -3143.209999999999 757.46 -3156.309999999999 768.13 -3169.949999999999 770.26 L -3142.3799999999987 813.28 L -3165.24 813.28 z" stroke-linecap="round" />
</g>
		<g transform="matrix(1 0 0 1 670.87 -200.5)" id="ydQb8mifkWmvbm3KFES14"  >
<path style="stroke: none; stroke-width: 1; stroke-dasharray: none; stroke-linecap: butt; stroke-dashoffset: 0; stroke-linejoin: miter; stroke-miterlimit: 4; fill: rgb(0,159,221); fill-rule: nonzero; opacity: 1;" vector-effect="non-scaling-stroke"  transform=" translate(3076.07, -759.5)" d="M -3124.64 769.93 L -3124.64 703.76 L -3104.64 703.76 L -3104.64 769.44 C -3104.64 786.83 -3094.73 798.1600000000001 -3076.08 798.1600000000001 C -3057.44 798.1600000000001 -3047.52 786.83 -3047.52 769.44 L -3047.52 703.76 L -3027.5099999999998 703.76 L -3027.5099999999998 769.93 C -3027.5099999999998 797.02 -3043.47 815.25 -3076.0699999999997 815.25 C -3108.51 815.24 -3124.64 797.02 -3124.64 769.93" stroke-linecap="round" />
</g>
		<g transform="matrix(1 0 0 1 787.18 -201.48)" id="CF_mSsX_m-OkyH5BSjYtU"  >
<path style="stroke: none; stroke-width: 1; stroke-dasharray: none; stroke-linecap: butt; stroke-dashoffset: 0; stroke-linejoin: miter; stroke-miterlimit: 4; fill: rgb(0,159,221); fill-rule: nonzero; opacity: 1;" vector-effect="non-scaling-stroke"  transform=" translate(2959.76, -758.52)" d="M -2937.01 738.08 C -2937.01 727.5600000000001 -2944.9 720.6600000000001 -2956.01 720.6600000000001 L -2983.03 720.6600000000001 L -2983.03 755.3100000000001 L -2956.01 755.3100000000001 C -2944.9 755.31 -2937.01 748.42 -2937.01 738.08 M -3002.68 813.27 L -3002.68 703.76 L -2953.31 703.76 C -2929.79 703.76 -2916.84 719.35 -2916.84 738.08 C -2916.84 756.62 -2929.94 772.23 -2953.31 772.23 L -2983.0299999999997 772.23 L -2983.0299999999997 813.28 L -3002.68 813.28 z" stroke-linecap="round" />
</g>
		<g transform="matrix(1 0 0 1 899.03 -201.41)" id="uSj58p-1obFeQ-rZVV8tb"  >
<path style="stroke: none; stroke-width: 1; stroke-dasharray: none; stroke-linecap: butt; stroke-dashoffset: 0; stroke-linejoin: miter; stroke-miterlimit: 4; fill: rgb(0,159,221); fill-rule: nonzero; opacity: 1;" vector-effect="non-scaling-stroke"  transform=" translate(2847.91, -758.59)" d="M -2810.79 758.59 C -2810.79 735.9300000000001 -2825.41 719.01 -2847.94 719.01 C -2870.62 719.01 -2885.07 735.93 -2885.07 758.59 C -2885.07 781.09 -2870.6200000000003 798.1700000000001 -2847.94 798.1700000000001 C -2825.41 798.17 -2810.79 781.09 -2810.79 758.59 M -2905.22 758.59 C -2905.22 725.9200000000001 -2881.5099999999998 701.9300000000001 -2847.9399999999996 701.9300000000001 C -2814.5099999999998 701.9300000000001 -2790.6099999999997 725.9100000000001 -2790.6099999999997 758.59 C -2790.6099999999997 791.28 -2814.5099999999998 815.25 -2847.9399999999996 815.25 C -2881.51 815.25 -2905.22 791.28 -2905.22 758.59" stroke-linecap="round" />
</g>
		<g transform="matrix(1 0 0 1 -826.26 127.38)" id="kyxGZyzilILMxqPNGk2xR"  >
<path style="stroke: none; stroke-width: 1; stroke-dasharray: none; stroke-linecap: butt; stroke-dashoffset: 0; stroke-linejoin: miter; stroke-miterlimit: 4; fill: rgb(0,159,221); fill-rule: nonzero; opacity: 1;" vector-effect="non-scaling-stroke"  transform=" translate(4573.21, -1087.38)" d="M -4439.48 956.69 C -4439.48 956.69 -4641.0199999999995 1058.8400000000001 -4663.66 1070.29 C -4686.29 1081.74 -4706.94 1096.25 -4706.94 1130.1399999999999 L -4706.94 1218.07 L -4484.049999999999 1105.1299999999999 C -4454.339999999999 1089.81 -4439.48 1069.6399999999999 -4439.48 1043.02 L -4439.48 956.69 z" stroke-linecap="round" />
</g>
</g>
</g>
</svg>