<?xml version="1.0" encoding="UTF-8" standalone="no" ?>
<!DOCTYPE svg PUBLIC "-//W3C//DTD SVG 1.1//EN" "http://www.w3.org/Graphics/SVG/1.1/DTD/svg11.dtd">
<svg xmlns="http://www.w3.org/2000/svg" xmlns:xlink="http://www.w3.org/1999/xlink" version="1.1" width="268.46000000000004" height="436.6399999999999" viewBox="112.5 37.212222222222465 268.46000000000004 436.6399999999999" xml:space="preserve">
<desc>Created with Fabric.js 4.6.0</desc>
<defs>
</defs>
<g transform="matrix(1 0 0 1 246.73 168.4)" id="NEc42WUvvHqwA4TDOSeB2"  >
<path style="stroke: none; stroke-width: 1; stroke-dasharray: none; stroke-linecap: butt; stroke-dashoffset: 0; stroke-linejoin: miter; stroke-miterlimit: 4; fill: rgb(32,32,142); fill-rule: nonzero; opacity: 1;" vector-effect="non-scaling-stroke"  transform=" translate(0, 0)" d="M -133.725 -130.69 C -133.725 -130.69 67.82500000000002 -28.53 90.45500000000001 -17.090000000000003 C 113.09500000000001 -5.650000000000004 133.72500000000002 8.869999999999997 133.72500000000002 42.76 L 133.72500000000002 130.69 L -89.14499999999998 17.75999999999999 C -118.85499999999999 2.429999999999991 -133.72499999999997 -17.74000000000001 -133.72499999999997 -44.37000000000001 L -133.72499999999997 -130.69 z" stroke-linecap="round" />
</g>
<g transform="matrix(1 0 0 1 246.73 342.66)" id="kyxGZyzilILMxqPNGk2xR"  >
<path style="stroke: none; stroke-width: 1; stroke-dasharray: none; stroke-linecap: butt; stroke-dashoffset: 0; stroke-linejoin: miter; stroke-miterlimit: 4; fill: rgb(0,159,221); fill-rule: nonzero; opacity: 1;" vector-effect="non-scaling-stroke"  transform=" translate(4573.21, -1087.38)" d="M -4439.48 956.69 C -4439.48 956.69 -4641.0199999999995 1058.8400000000001 -4663.66 1070.29 C -4686.29 1081.74 -4706.94 1096.25 -4706.94 1130.1399999999999 L -4706.94 1218.07 L -4484.049999999999 1105.1299999999999 C -4454.339999999999 1089.81 -4439.48 1069.6399999999999 -4439.48 1043.02 L -4439.48 956.69 z" stroke-linecap="round" />
</g>
</svg>