<svg id="Grupo_11" data-name="Grupo 11" xmlns="http://www.w3.org/2000/svg" xmlns:xlink="http://www.w3.org/1999/xlink" width="241.5" height="30.949" viewBox="0 0 241.5 30.949">
  <defs>
    <clipPath id="clip-path">
      <rect id="Rectángulo_19" data-name="Rectángulo 19" width="241.5" height="30.949" fill="#aaa"/>
    </clipPath>
  </defs>
  <g id="Grupo_10" data-name="Grupo 10" transform="translate(0 0)" clip-path="url(#clip-path)">
    <path id="Trazado_30" data-name="Trazado 30" d="M221.2,19.554c0-2.91-1.617-4.2-4.851-4.849s-5.17-.97-5.17-3.232c0-1.616,1.294-2.586,3.556-2.586,2.91,0,3.879,1.294,3.879,2.91l.324.322h1.292l.325-.322c0-3.232-2.589-4.527-5.82-4.527-3.556,0-5.494,1.94-5.494,4.2,0,2.586,1.938,3.879,5.17,4.526s4.849.97,4.849,3.556c0,1.616-.968,2.91-4.2,2.91-2.91,0-4.2-1.617-4.2-3.557l-.324-.322h-1.292l-.324.322c0,2.91,2.262,5.173,6.141,5.173,4.2,0,6.141-1.94,6.141-4.526m-13.9-3.232L207.62,16v-.97c0-4.526-2.586-7.759-7.111-7.759S193.4,10.5,193.4,15.028v.646c0,4.526,2.263,8.4,7.435,8.4,4.525,0,6.141-2.91,6.465-4.849l-.324-.324H205.68l-.322.324a4.308,4.308,0,0,1-4.525,3.233c-4.2,0-5.5-3.879-5.5-5.819l.324-.322Zm-1.94-1.617h-9.7l-.324-.322c0-2.263,1.292-5.5,5.172-5.5s5.172,3.232,5.172,5.5Zm-14.224,8.729V7.916l-.322-.324h-1.294l-.322.324V23.433l.322.322h1.294Zm0-18.749V2.744l-.322-.322h-1.294l-.322.322v1.94l.322.324h1.294Zm-12.282,17.78c-3.233,0-5.173-2.263-5.173-6.789s1.94-6.788,5.173-6.788,5.172,2.262,5.172,6.788-1.941,6.789-5.172,6.789m5.172-.971c0,4.2-.97,7.436-4.849,7.436-2.91,0-3.879-1.294-4.2-2.91l-.324-.324h-1.292l-.324.324c.324,2.586,2.262,4.524,6.141,4.524,4.2,0,6.788-2.586,6.788-9.051V7.916l-.322-.324h-.97l-.324.324-.322,1.941H183.7c-.645-1.292-2.261-2.587-5.172-2.587-4.526,0-6.788,3.556-6.788,8.4s2.262,8.4,6.788,8.4c2.911,0,4.527-1.292,5.172-2.587ZM163.014,8.887c3.232,0,5.494,2.586,5.494,6.788s-2.262,6.789-5.494,6.789-5.5-2.587-5.5-6.789,2.263-6.788,5.5-6.788m0,15.192c4.2,0,7.434-2.91,7.434-8.4s-3.232-8.4-7.434-8.4-7.435,2.911-7.435,8.4,3.232,8.4,7.435,8.4m-9.7-.646V1.452l-.322-.324H151.7l-.324.324V23.433l.324.322h1.294ZM141.68,8.887c3.232,0,5.5,2.586,5.5,6.788s-2.263,6.789-5.5,6.789-5.5-2.587-5.5-6.789,2.263-6.788,5.5-6.788m0,15.192c4.2,0,7.435-2.91,7.435-8.4s-3.233-8.4-7.435-8.4-7.435,2.911-7.435,8.4,3.233,8.4,7.435,8.4m-9.375-.646v-9.7c0-4.2-2.261-6.465-5.818-6.465a5.87,5.87,0,0,0-5.172,2.587h-.325l-.321-1.941-.324-.324h-.971l-.322.324V23.433l.322.322h1.295l.321-.322V14.7c0-3.556,1.617-5.818,5.173-5.818,2.586,0,4.2,1.616,4.2,4.848v9.7l.324.322h1.294Zm-16.486,0v-9.7c0-4.2-2.263-6.465-5.818-6.465a5.871,5.871,0,0,0-5.172,2.587h-.324v-8.4l-.322-.324H102.89l-.324.324V23.433l.324.322h1.294l.322-.322V14.7c0-3.556,1.617-5.818,5.173-5.818,2.586,0,4.2,1.616,4.2,4.848v9.7l.322.322H115.5Zm-27.8-7.759c0-4.526,2.262-6.788,5.5-6.788s4.524,1.938,4.848,3.878l.322.324h1.295l.322-.324c-.322-3.232-2.91-5.5-6.788-5.5-4.2,0-7.434,2.587-7.434,8.4s3.232,8.4,7.434,8.4c3.878,0,6.465-2.263,6.788-5.5l-.322-.324H98.687l-.322.324c-.324,1.938-1.616,3.879-4.848,3.879s-5.5-2.263-5.5-6.789m-3.556.647L84.789,16v-.97c0-4.526-2.587-7.759-7.114-7.759s-7.11,3.233-7.11,7.759v.646c0,4.526,2.262,8.4,7.435,8.4,4.524,0,6.14-2.91,6.465-4.849l-.325-.324H82.85l-.325.324A4.3,4.3,0,0,1,78,22.463c-4.2,0-5.5-3.879-5.5-5.819l.322-.322ZM82.524,14.7h-9.7l-.322-.322c0-2.263,1.294-5.5,5.17-5.5s5.174,3.232,5.174,5.5ZM73.815,2.422v-.97l-.322-.324H56.683l-.324.324v.97l.324.322h7.111l.322.324V23.433l.325.322h1.292l.322-.322V3.068l.324-.324h7.113Z" transform="translate(20.302 0.406)" fill="#aaa"/>
    <path id="Trazado_31" data-name="Trazado 31" d="M76.661,19.665v4.5h-14.6V1.534H67.2V19.665Zm-67.489,4.5A11.318,11.318,0,0,0,20.125,15.7l12.8,10,12.793-10v8.461h14.6v-4.5H50.858V1.534H45.719V10L33.447,19.582,30.7,17.438l5.875-4.589,6.4-5L39.322,5,27.051,14.584l-2.745-2.144L36.577,2.854,32.926,0l-12.8,10A11.318,11.318,0,0,0,9.172,1.534H0V24.162Zm-4.033-4.5V6.031H9.172c3.41,0,6.174,3.052,6.174,6.818s-2.764,6.816-6.174,6.816Z" transform="translate(0 0)" fill="#aaa"/>
  </g>
</svg>
