<svg id="Grupo_15" data-name="Grupo 15" xmlns="http://www.w3.org/2000/svg" xmlns:xlink="http://www.w3.org/1999/xlink" width="181.882" height="55.21" viewBox="0 0 181.882 55.21">
  <defs>
    <clipPath id="clip-path">
      <rect id="Rectángulo_21" data-name="Rectángulo 21" width="181.882" height="55.21" fill="#aaa"/>
    </clipPath>
  </defs>
  <g id="Grupo_14" data-name="Grupo 14" clip-path="url(#clip-path)">
    <path id="Trazado_38" data-name="Trazado 38" d="M1371.227,44.353h-6.7v-.48q0-7.142,0-14.284a8.282,8.282,0,0,0-.373-2.621,5.118,5.118,0,0,0-3.765-3.565,7.367,7.367,0,0,0-4.984.438,5.635,5.635,0,0,0-3.256,4.17,9.569,9.569,0,0,0-.19,2.063q0,6.887,0,13.774v.522c-2.245,0-4.46,0-6.7,0V6.087c.248-.079,6.067-.108,6.677-.027.045.765.014,1.537.02,2.309s0,1.555,0,2.332v9.336a1.33,1.33,0,0,0,.163-.118,9.881,9.881,0,0,1,5.259-3.01,11.931,11.931,0,0,1,7.192.51,9.989,9.989,0,0,1,5.571,5.515,13.554,13.554,0,0,1,1.1,5.5q.012,7.8,0,15.6c0,.1-.008.191-.015.326" transform="translate(-1189.361 -5.315)" fill="#aaa"/>
    <path id="Trazado_39" data-name="Trazado 39" d="M864.127,120.729c-.279.28-.563.594-.876.876a16.014,16.014,0,0,1-8.2,3.919,17.339,17.339,0,0,1-6.876-.141,12.84,12.84,0,0,1-9.475-7.751,14.933,14.933,0,0,1-1.121-6.55,14.783,14.783,0,0,1,2.138-7.254,13.117,13.117,0,0,1,7.037-5.714,15.123,15.123,0,0,1,9-.333,12.034,12.034,0,0,1,6.991,4.934,16.27,16.27,0,0,1,2.718,7.448,31.574,31.574,0,0,1,.131,3.893,1.356,1.356,0,0,1-.025.17H844.7a2.391,2.391,0,0,0,.046.266,7.159,7.159,0,0,0,3.545,4.468,7.783,7.783,0,0,0,4.266.855,10.161,10.161,0,0,0,4.9-1.818,13.794,13.794,0,0,0,2.015-1.616c.06-.058.125-.11.167-.147l4.5,4.495M844.5,108.751c.487.073,13.748.056,14.056-.024-.109-.383-.2-.773-.33-1.147a6.152,6.152,0,0,0-3.027-3.536,7.67,7.67,0,0,0-4.378-.82,6.872,6.872,0,0,0-5.578,3.537,6.191,6.191,0,0,0-.742,1.99" transform="translate(-740.501 -85.982)" fill="#aaa"/>
    <path id="Trazado_40" data-name="Trazado 40" d="M380.1,98.384v5.454l-1.777.618c.012.053.011.092.029.115a9.517,9.517,0,0,1,1.8,4.137,15.119,15.119,0,0,1-.333,7.42,13.411,13.411,0,0,1-5.4,7.379,14.593,14.593,0,0,1-8.408,2.559,15,15,0,0,1-8.084-2.2,13.323,13.323,0,0,1-6.2-8.679,14.182,14.182,0,0,1,.388-8.007,13.809,13.809,0,0,1,8.167-8.542,14.9,14.9,0,0,1,6.789-1,14.233,14.233,0,0,1,3.14.614,2.732,2.732,0,0,0,.783.122c2.879.008,5.759.005,8.638.005Zm-14.154,21.2a7.755,7.755,0,0,0-.033-15.51,7.755,7.755,0,0,0,.033,15.51" transform="translate(-310.621 -86.286)" fill="#aaa"/>
    <path id="Trazado_41" data-name="Trazado 41" d="M94.921,97.413a14.962,14.962,0,0,1,7.116,1.735,13.692,13.692,0,0,1,6.68,7.986,14.234,14.234,0,0,1-.371,10.15,13.409,13.409,0,0,1-6.8,7.145,15.086,15.086,0,0,1-8.623,1.35,14.566,14.566,0,0,1-7.1-2.812,13.348,13.348,0,0,1-4.871-7.033,14.539,14.539,0,0,1-.438-6.489,13.8,13.8,0,0,1,4.683-8.494,14.157,14.157,0,0,1,7.972-3.42c.579-.062,1.162-.08,1.744-.118m-7.744,14.232a7.666,7.666,0,0,0,7.793,7.776,7.756,7.756,0,1,0-.112-15.511,7.654,7.654,0,0,0-7.681,7.735" transform="translate(-71.031 -86.124)" fill="#aaa"/>
    <path id="Trazado_42" data-name="Trazado 42" d="M1119.973,116.07l4.674,4.6c-.092.118-.167.224-.251.321a14.19,14.19,0,0,1-5.777,4.009,15.253,15.253,0,0,1-10.632.151,13.572,13.572,0,0,1-7.9-6.927,14.163,14.163,0,0,1-1.483-7.983,13.6,13.6,0,0,1,5.451-9.719,14.129,14.129,0,0,1,7.239-2.92,14.789,14.789,0,0,1,12.8,4.633c.177.182.333.385.532.617l-4.686,4.658c-.132-.143-.236-.258-.343-.371a9.969,9.969,0,0,0-4.193-2.742,7.764,7.764,0,0,0-8.736,11.79,7.4,7.4,0,0,0,6.785,3.305,8.261,8.261,0,0,0,4.745-1.849c.613-.472,1.163-1.025,1.783-1.576" transform="translate(-971.217 -86.202)" fill="#aaa"/>
    <path id="Trazado_43" data-name="Trazado 43" d="M722.969,41.272v6.011c-.391.028-.787.01-1.182.013-.413,0-.826,0-1.239,0h-1.237V68.139c-.3.081-6.135.108-6.73.037V47.311c-.422-.026-.807-.011-1.191-.013-.4,0-.8,0-1.2,0h-1.154c-.074-.283-.094-5.526-.024-6.024h3.551v-8.21c.3-.079,6.232-.1,6.728-.03v8.222c1.245.026,2.452,0,3.681.017" transform="translate(-626.807 -29.167)" fill="#aaa"/>
    <path id="Trazado_44" data-name="Trazado 44" d="M6.679,45.21H0V7C2.23,7,4.444,7,6.679,7Z" transform="translate(0 -6.191)" fill="#aaa"/>
    <path id="Trazado_45" data-name="Trazado 45" d="M351.079,353.221h6.792a7.859,7.859,0,0,0,3.189,6.3,7.8,7.8,0,0,0,10.119-.871,7.707,7.707,0,0,0,2.226-5.43h6.738c.008.1.023.2.021.291a13.927,13.927,0,0,1-11.118,13.6,15.257,15.257,0,0,1-10.383-1.279,13.354,13.354,0,0,1-7.363-10.028c-.13-.725-.151-1.471-.218-2.207-.011-.118,0-.237,0-.378" transform="translate(-310.39 -312.286)" fill="#aaa"/>
    <path id="Trazado_46" data-name="Trazado 46" d="M632.68,131.239h-6.657V104.386c.249-.082,6.121-.11,6.64-.033.068.265.088,26.4.017,26.886" transform="translate(-553.476 -92.22)" fill="#aaa"/>
    <path id="Trazado_47" data-name="Trazado 47" d="M620.824,8.89a4.445,4.445,0,1,1,4.44-4.462,4.433,4.433,0,0,1-4.44,4.462" transform="translate(-544.945 0)" fill="#aaa"/>
  </g>
</svg>
