<svg xmlns="http://www.w3.org/2000/svg" xmlns:xlink="http://www.w3.org/1999/xlink" width="159.347" height="28.769" viewBox="0 0 159.347 28.769">
  <defs>
    <clipPath id="clip-path">
      <rect id="Rectángulo_20" data-name="Rectángulo 20" width="159.347" height="28.769" fill="#aaa"/>
    </clipPath>
  </defs>
  <g id="Grupo_13" data-name="Grupo 13" transform="translate(-38.965)">
    <g id="Grupo_12" data-name="Grupo 12" transform="translate(38.965)" clip-path="url(#clip-path)">
      <path id="Trazado_32" data-name="Trazado 32" d="M773.974,12.685a12.4,12.4,0,0,0-2.785-6.665,14.594,14.594,0,0,0-5.2-3.926,23.327,23.327,0,0,0-8.4-2.016A1.069,1.069,0,0,1,757.04,0h-2.807c-.087.085-.2.059-.3.065a26.86,26.86,0,0,0-3.891.493,19.437,19.437,0,0,0-6.609,2.56,12.867,12.867,0,0,0-5.281,6.212,13.906,13.906,0,0,0-.768,7.205,12.333,12.333,0,0,0,3.232,6.8,15.351,15.351,0,0,0,5.657,3.766,23.448,23.448,0,0,0,6.807,1.543,28.811,28.811,0,0,0,8.527-.5,18.846,18.846,0,0,0,6.528-2.657,12.768,12.768,0,0,0,5.237-6.637,14.1,14.1,0,0,0,.605-6.168M763.34,20.106a8.175,8.175,0,0,1-5.96,4.042,10.062,10.062,0,0,1-4.716-.292,8.2,8.2,0,0,1-5.238-4.787,11.964,11.964,0,0,1-.84-6.082A10.315,10.315,0,0,1,747.995,8.6a8.162,8.162,0,0,1,5.841-3.958,10.032,10.032,0,0,1,4.795.279,8.312,8.312,0,0,1,5.461,5.345,11.853,11.853,0,0,1,.7,4.061,11.264,11.264,0,0,1-1.454,5.778" transform="translate(-651.417 -0.003)" fill="#aaa"/>
      <path id="Trazado_33" data-name="Trazado 33" d="M0,1.353a18.885,18.885,0,0,0,1.958-.106C3.066,1.2,4.171,1.1,5.279,1.052,8.644.9,12.01.813,15.378.806a43.82,43.82,0,0,1,5.759.318,17.875,17.875,0,0,1,5.21,1.366A8.005,8.005,0,0,1,29.26,4.631a6.638,6.638,0,0,1,1.464,3.622,7.611,7.611,0,0,1-.264,3.092,6.454,6.454,0,0,1-2.711,3.513,11.669,11.669,0,0,1-4.184,1.65,17.123,17.123,0,0,1-2.924.348,69.414,69.414,0,0,1,13.2,11.8c-.118.13-.231.084-.329.084-3.221,0-6.442,0-9.663.009a.713.713,0,0,1-.63-.318A68.494,68.494,0,0,0,11.658,16.81a.729.729,0,0,1-.328-.668c.025-.627,0-1.256.009-1.884,0-.307.007-.313.31-.313.962,0,1.924-.014,2.885-.077a19.011,19.011,0,0,0,4.5-.736,6.4,6.4,0,0,0,1.869-.9,3.266,3.266,0,0,0,1.408-2.619,4.838,4.838,0,0,0-.049-1.158,3.275,3.275,0,0,0-1.441-2.134,6.524,6.524,0,0,0-2.528-.958,21.035,21.035,0,0,0-4.515-.207c-1.215.034-2.43.085-3.641.206-.385.038-.77.082-1.156.117-.163.015-.24.086-.222.256a3.128,3.128,0,0,1,0,.32q0,11.084,0,22.168c0,.6.08.521-.539.522q-3.909,0-7.818,0a1.108,1.108,0,0,0-.4.027Z" transform="translate(0 -0.712)" fill="#aaa"/>
      <path id="Trazado_34" data-name="Trazado 34" d="M605.6.067A.294.294,0,0,0,605.615,0h3.048q.007.034.016.067a.516.516,0,0,1-.44.14q-1.1.013-2.2,0A.521.521,0,0,1,605.6.067" transform="translate(-535.12 0.001)" fill="#aaa"/>
      <path id="Trazado_35" data-name="Trazado 35" d="M1101.074,19.907V6.879c0-.08,0-.16,0-.24,0-.344,0-.348.351-.348h8.1c.067,0,.134,0,.2,0a.147.147,0,0,1,.171.168c0,.107,0,.214,0,.321v9.38c0,.08,0,.16,0,.241.006.3.007.3.312.3q6.435,0,12.87,0c.327,0,.33,0,.33-.368q0-4.77,0-9.54c0-.592-.039-.5.521-.5q3.95,0,7.9,0c.479,0,.44-.041.44.422q0,13.228,0,26.457a1.525,1.525,0,0,0,0,.16c.019.182-.043.284-.244.264-.066-.007-.134,0-.2,0h-7.979c-.469,0-.439.023-.439-.431q0-5.331,0-10.663c0-.529.046-.48-.466-.48h-12.59c-.08,0-.161,0-.241,0-.149-.01-.227.046-.217.206.007.106,0,.214,0,.321v10.5c0,.08,0,.16,0,.241-.007.3-.007.3-.319.3q-1.784,0-3.568,0h-4.531c-.435,0-.405.032-.405-.417V19.907" transform="translate(-972.928 -5.555)" fill="#aaa"/>
      <path id="Trazado_36" data-name="Trazado 36" d="M470.788.573c.746,0,1.493.01,2.239.01a4.667,4.667,0,0,0,.838-.011,25.777,25.777,0,0,1,9.144,1.811,9.869,9.869,0,0,1,1.241.533,1.312,1.312,0,0,1-.224.395q-1.1,1.7-2.215,3.388c-.179.272-.184.275-.463.131A15.02,15.02,0,0,0,475.2,5.217a22.359,22.359,0,0,0-3.284.018,11.534,11.534,0,0,0-5.759,2,8.755,8.755,0,0,0-3.7,6.173,9.9,9.9,0,0,0,.736,5.564,9.106,9.106,0,0,0,5.241,4.795,13.116,13.116,0,0,0,4.465.852,19.748,19.748,0,0,0,8.782-1.656c.272-.123.278-.121.451.114q1.154,1.564,2.3,3.132c.031.042.054.09.08.132-.066.128-.194.151-.3.2a22.643,22.643,0,0,1-7.9,2.482,30.857,30.857,0,0,1-11.65-.708,18.075,18.075,0,0,1-7.012-3.487,12.052,12.052,0,0,1-4.461-7.819A12.621,12.621,0,0,1,458.67,4.191a18.931,18.931,0,0,1,6.61-2.872,26.747,26.747,0,0,1,5.508-.745" transform="translate(-400.307 -0.505)" fill="#aaa"/>
      <path id="Trazado_37" data-name="Trazado 37" d="M336.443,19.957V33.062c0,.107,0,.214,0,.321.007.148-.049.227-.207.219-.08,0-.16,0-.24,0h-8.418c-.484,0-.45.048-.45-.455q0-13.185,0-26.371c0-.544-.039-.475.467-.475q4.189,0,8.378,0h.08c.408,0,.39-.032.39.392V19.957" transform="translate(-289.056 -5.565)" fill="#aaa"/>
    </g>
  </g>
</svg>
