<svg xmlns="http://www.w3.org/2000/svg" width="48" height="46" viewBox="0 0 48 46">
  <g id="Grupo_771" data-name="Grupo 771" transform="translate(-1732 -48)">
    <g id="Grupo_756" data-name="Grupo 756" transform="translate(207)">
      <rect id="Rectángulo_3" data-name="Rectángulo 3" width="48" height="46" rx="23" transform="translate(1525 48)" fill="#009fdd"/>
    </g>
    <path id="Trazado_922" data-name="Trazado 922" d="M28.018,44.815c0-.365,0-.731,0-1.1a9.611,9.611,0,0,0-1.866-5.81.551.551,0,0,1-.124-.388c.034-.446.045-.894.078-1.341a2.185,2.185,0,0,0-2.363-2.54q-2.581,0-5.162,0c-.584,0-.837-.25-.846-.853-.006-.4.011-.8-.007-1.2a.4.4,0,0,1,.217-.4A3.613,3.613,0,0,0,19.14,30.1a1.617,1.617,0,0,1,1.664-.818,2.076,2.076,0,0,0,2.1-2.12c.012-1.32,0-2.639,0-3.959a1.627,1.627,0,0,0-.734-1.411.472.472,0,0,1-.228-.46q.016-1.166,0-2.333a2.272,2.272,0,0,0-2.2-2.411c-.161-.016-.216-.066-.237-.228a2.269,2.269,0,0,0-2.428-2.144q-2.7-.005-5.409,0a5.047,5.047,0,0,0-5.111,5.1c0,.7-.006,1.391,0,2.086a.367.367,0,0,1-.2.364A1.647,1.647,0,0,0,5.592,23.2c-.014.671-.018,1.344,0,2.015a1.7,1.7,0,0,0,1.437,1.677,3.167,3.167,0,0,0,.7.02c.191-.012.264.052.294.24a5.842,5.842,0,0,0,2.558,4.057c.086.059.184.109.182.238-.009.53.012,1.062-.036,1.588-.039.429-.3.608-.745.608-1.791,0-3.583-.008-5.374,0a2.144,2.144,0,0,0-2.225,2.3c.012.518.044,1.036.079,1.553a.635.635,0,0,1-.14.453,9.349,9.349,0,0,0-.932,1.576,10.214,10.214,0,0,0-.9,5.053A3.333,3.333,0,0,1,.3,45.891a3.147,3.147,0,0,1-.174.393,1.374,1.374,0,0,0-.117.409A1.575,1.575,0,0,0,.651,48.11a1.53,1.53,0,0,0,.8.261l0,.014.024.025q5.141.127,10.468.143,7.725.02,15.074-.2a1.609,1.609,0,0,0,1.253-2.327,2.371,2.371,0,0,1-.249-1.209m-2.34-.732c.076-1.468.163-2.935.251-4.494a6.615,6.615,0,0,1,.644,1.488,11.4,11.4,0,0,1,.386,3.77c0,.142-.029.229-.195.2a1.39,1.39,0,0,0-.176,0c-.3-.008-.719.1-.882-.054-.193-.184-.045-.6-.028-.91M18.249,29.074c-.447.015-.9.016-1.342,0a.382.382,0,0,1,.019-.763c.224-.007.447,0,.671,0v0c.212,0,.424,0,.636,0a.384.384,0,1,1,.016.768m2.128-.82c-.158-.016-.129-.084-.1-.179a4.907,4.907,0,0,0,.219-.992c.014-.173.117-.169.241-.169a2.727,2.727,0,0,0,1.072-.111c.192.753-.281,1.567-1.432,1.452m1.339-5.181c.024-.039.056-.076.126-.027,0,.716.008,1.444,0,2.171a.624.624,0,0,1-.622.633c-.128.009-.26-.012-.387.006-.225.032-.274-.06-.268-.272.016-.5.009-1.01,0-1.514,0-.145.023-.235.187-.281a1.6,1.6,0,0,0,.965-.716M7.86,25.852a.872.872,0,0,1-1.2-.625c-.029-.692-.006-1.386,0-2.079a.748.748,0,0,1,.058-.173,1.752,1.752,0,0,0,1.08.829c.118.032.135.111.134.213,0,.552,0,1.1,0,1.657,0,.065.02.136-.067.178m-.237-4.267a20.4,20.4,0,0,1,.041-2.824,3.928,3.928,0,0,1,3.98-3.477c1.838-.027,3.676-.011,5.514,0a1.213,1.213,0,0,1,1.3,1.2,1.155,1.155,0,0,0,1.207,1.163,1.224,1.224,0,0,1,1.221,1.248c0,.023,0,.047,0,.071q0,.778,0,1.555c0,.53-.01,1.06,0,1.59a.617.617,0,0,1-.477.685c-.258.078-.517.159-.766.262-.228.093-.311.061-.3-.208.017-.577.008-1.154.006-1.732a2.412,2.412,0,0,0-3.154-2.46,7.116,7.116,0,0,1-3.855.006,2.386,2.386,0,0,0-3.146,1.929c-.067.641-.025,1.295-.028,1.942,0,.62,0,.62-.571.425-1.087-.37-.98-.268-.973-1.375M9.154,27.4a13.881,13.881,0,0,1-.166-3.06c0-.16.108-.148.212-.167a1.136,1.136,0,0,0,1.027-1.218c0-.6.032-1.2-.008-1.8A1.388,1.388,0,0,1,12.13,19.7a7.316,7.316,0,0,0,2.859.289,6.876,6.876,0,0,0,1.24-.259,2.265,2.265,0,0,1,.837-.1,1.3,1.3,0,0,1,1.22,1.349c.012.671,0,1.342,0,2.014A1.1,1.1,0,0,0,19.3,24.177c.1.018.214,0,.208.163a13.989,13.989,0,0,1-.17,3.163,1.365,1.365,0,0,1-.068.151,1.629,1.629,0,0,0-1.287-.413c-.365.014-.73-.006-1.1.006a1.439,1.439,0,0,0-.141,2.869c.241.032.486.029.8.046a5.392,5.392,0,0,1-2.18,1.032A5.262,5.262,0,0,1,9.154,27.4m2.675,4.748c0-.132-.028-.276.2-.19a6.381,6.381,0,0,0,4.583-.026c.009,0,.023,0,.052.011a4.953,4.953,0,0,0,.173,1.676H11.677a4.048,4.048,0,0,0,.151-1.472M2.512,39.681c.005-.009.018-.015.065-.053.029.468.053.9.083,1.333s.227.628.57.6c.321-.022.509-.263.488-.651C3.64,39.5,3.558,38.091,3.48,36.68c-.016-.282-.033-.565-.034-.847a1.085,1.085,0,0,1,1.033-1.126c.117-.01.235-.005.353-.005H23.671c1.051,0,1.434.431,1.374,1.483q-.239,4.234-.446,8.469c-.016.324-.108.4-.425.4q-3.782-.02-7.564,0c-.315,0-.384-.068-.286-.365a4.091,4.091,0,0,1,.784-1.365,3.758,3.758,0,0,0-.848-5.626,1.26,1.26,0,0,0-.381-.174.786.786,0,0,0-.973.79q-.016,1.113,0,2.227c0,.271-.088.382-.368.375-1.079-.028-.921.157-.933-.9-.006-.53,0-1.06,0-1.59a.837.837,0,0,0-.43-.828.877.877,0,0,0-.931.092,3.766,3.766,0,0,0-.9,5.574,4,4,0,0,1,.835,1.456c.065.231.067.333-.228.332q-3.87-.015-7.741,0c-.209,0-.289-.045-.29-.267,0-.4-.033-.8-.061-1.2-.027-.382-.245-.617-.551-.609-.324.008-.521.261-.506.668.015.388.031.777.066,1.164.017.191-.042.249-.228.242-.306-.012-.613-.005-.919,0-.1,0-.179.018-.184-.13a9.814,9.814,0,0,1,.972-5.238M12.821,41.5a2.239,2.239,0,0,0,2.833.034,1.3,1.3,0,0,0,.311-.878c0-.6,0-1.195,0-1.855a2.659,2.659,0,0,1,.454,3.674A5.185,5.185,0,0,0,15.2,44.9c-.024.157-.118.148-.225.147-.483,0-.966,0-1.449,0-.139,0-.216-.035-.239-.188a4.6,4.6,0,0,0-1.123-2.276,2.68,2.68,0,0,1,.161-3.6c.048-.048.1-.089.218-.185,0,.633,0,1.2,0,1.774a1.374,1.374,0,0,0,.277.925m13.786,5.832q-6.186,0-12.372,0H2.11c-.082,0-.165,0-.247,0-.467-.008-.747-.243-.742-.621s.276-.6.756-.6q12.372,0,24.744,0c.485,0,.749.216.755.6s-.268.624-.769.625" transform="translate(1741.964 39.117)" fill="#fff"/>
  </g>
</svg>